<svg width="20" height="20" viewBox="0 0 20 20" fill="none" xmlns="http://www.w3.org/2000/svg">
<path d="M4.42345 17.9167C4.00248 17.9167 3.64616 17.7708 3.35449 17.4792C3.06283 17.1875 2.91699 16.8312 2.91699 16.4102V5.25647C2.91699 4.8355 3.06283 4.47918 3.35449 4.18751C3.64616 3.89585 4.00248 3.75001 4.42345 3.75001H5.5772V1.9873H6.85928V3.75001H13.1735V1.9873H14.4235V3.75001H15.5772C15.9982 3.75001 16.3545 3.89585 16.6462 4.18751C16.9378 4.47918 17.0837 4.8355 17.0837 5.25647V16.4102C17.0837 16.8312 16.9378 17.1875 16.6462 17.4792C16.3545 17.7708 15.9982 17.9167 15.5772 17.9167H4.42345ZM4.42345 16.6667H15.5772C15.6414 16.6667 15.7001 16.6399 15.7535 16.5865C15.8069 16.5331 15.8337 16.4744 15.8337 16.4102V8.5898H4.16699V16.4102C4.16699 16.4744 4.19373 16.5331 4.2472 16.5865C4.30053 16.6399 4.35928 16.6667 4.42345 16.6667ZM4.16699 7.3398H15.8337V5.25647C15.8337 5.1923 15.8069 5.13355 15.7535 5.08022C15.7001 5.02675 15.6414 5.00001 15.5772 5.00001H4.42345C4.35928 5.00001 4.30053 5.02675 4.2472 5.08022C4.19373 5.13355 4.16699 5.1923 4.16699 5.25647V7.3398ZM10.0003 11.7308C9.7963 11.7308 9.62241 11.659 9.47866 11.5152C9.33505 11.3716 9.26324 11.1977 9.26324 10.9936C9.26324 10.7895 9.33505 10.6156 9.47866 10.4719C9.62241 10.3283 9.7963 10.2565 10.0003 10.2565C10.2044 10.2565 10.3782 10.3283 10.522 10.4719C10.6656 10.6156 10.7374 10.7895 10.7374 10.9936C10.7374 11.1977 10.6656 11.3716 10.522 11.5152C10.3782 11.659 10.2044 11.7308 10.0003 11.7308ZM6.66699 11.7308C6.46296 11.7308 6.28908 11.659 6.14533 11.5152C6.00171 11.3716 5.92991 11.1977 5.92991 10.9936C5.92991 10.7895 6.00171 10.6156 6.14533 10.4719C6.28908 10.3283 6.46296 10.2565 6.66699 10.2565C6.87102 10.2565 7.04491 10.3283 7.18866 10.4719C7.33227 10.6156 7.40408 10.7895 7.40408 10.9936C7.40408 11.1977 7.33227 11.3716 7.18866 11.5152C7.04491 11.659 6.87102 11.7308 6.66699 11.7308ZM13.3337 11.7308C13.1296 11.7308 12.9557 11.659 12.812 11.5152C12.6684 11.3716 12.5966 11.1977 12.5966 10.9936C12.5966 10.7895 12.6684 10.6156 12.812 10.4719C12.9557 10.3283 13.1296 10.2565 13.3337 10.2565C13.5377 10.2565 13.7116 10.3283 13.8553 10.4719C13.9989 10.6156 14.0707 10.7895 14.0707 10.9936C14.0707 11.1977 13.9989 11.3716 13.8553 11.5152C13.7116 11.659 13.5377 11.7308 13.3337 11.7308ZM10.0003 15C9.7963 15 9.62241 14.9281 9.47866 14.7844C9.33505 14.6408 9.26324 14.467 9.26324 14.2629C9.26324 14.0588 9.33505 13.8849 9.47866 13.7413C9.62241 13.5975 9.7963 13.5256 10.0003 13.5256C10.2044 13.5256 10.3782 13.5975 10.522 13.7413C10.6656 13.8849 10.7374 14.0588 10.7374 14.2629C10.7374 14.467 10.6656 14.6408 10.522 14.7844C10.3782 14.9281 10.2044 15 10.0003 15ZM6.66699 15C6.46296 15 6.28908 14.9281 6.14533 14.7844C6.00171 14.6408 5.92991 14.467 5.92991 14.2629C5.92991 14.0588 6.00171 13.8849 6.14533 13.7413C6.28908 13.5975 6.46296 13.5256 6.66699 13.5256C6.87102 13.5256 7.04491 13.5975 7.18866 13.7413C7.33227 13.8849 7.40408 14.0588 7.40408 14.2629C7.40408 14.467 7.33227 14.6408 7.18866 14.7844C7.04491 14.9281 6.87102 15 6.66699 15ZM13.3337 15C13.1296 15 12.9557 14.9281 12.812 14.7844C12.6684 14.6408 12.5966 14.467 12.5966 14.2629C12.5966 14.0588 12.6684 13.8849 12.812 13.7413C12.9557 13.5975 13.1296 13.5256 13.3337 13.5256C13.5377 13.5256 13.7116 13.5975 13.8553 13.7413C13.9989 13.8849 14.0707 14.0588 14.0707 14.2629C14.0707 14.467 13.9989 14.6408 13.8553 14.7844C13.7116 14.9281 13.5377 15 13.3337 15Z" fill="#999999"/>
</svg>
