<svg width="64" height="64" viewBox="0 0 64 64" fill="none" xmlns="http://www.w3.org/2000/svg">
<path d="M30.0003 44.667H34.0003V34.0003H44.667V30.0003H34.0003V19.3337H30.0003V30.0003H19.3337V34.0003H30.0003V44.667ZM32.005 57.3337C28.501 57.3337 25.2074 56.6688 22.1243 55.339C19.0412 54.0092 16.3594 52.2045 14.079 49.925C11.7985 47.6454 9.99299 44.9648 8.66233 41.883C7.3321 38.8012 6.66699 35.5086 6.66699 32.005C6.66699 28.501 7.33188 25.2074 8.66166 22.1243C9.99144 19.0412 11.7961 16.3594 14.0757 14.079C16.3552 11.7985 19.0359 9.99299 22.1177 8.66233C25.1994 7.3321 28.4921 6.66699 31.9957 6.66699C35.4997 6.66699 38.7932 7.33188 41.8763 8.66166C44.9594 9.99144 47.6412 11.7961 49.9217 14.0757C52.2021 16.3552 54.0077 19.0359 55.3383 22.1177C56.6686 25.1994 57.3337 28.4921 57.3337 31.9957C57.3337 35.4997 56.6688 38.7932 55.339 41.8763C54.0092 44.9594 52.2045 47.6412 49.925 49.9217C47.6454 52.2021 44.9648 54.0077 41.883 55.3383C38.8012 56.6686 35.5086 57.3337 32.005 57.3337ZM32.0003 53.3337C37.9559 53.3337 43.0003 51.267 47.1337 47.1337C51.267 43.0003 53.3337 37.9559 53.3337 32.0003C53.3337 26.0448 51.267 21.0003 47.1337 16.867C43.0003 12.7337 37.9559 10.667 32.0003 10.667C26.0448 10.667 21.0003 12.7337 16.867 16.867C12.7337 21.0003 10.667 26.0448 10.667 32.0003C10.667 37.9559 12.7337 43.0003 16.867 47.1337C21.0003 51.267 26.0448 53.3337 32.0003 53.3337Z" fill="url(#paint0_linear_1_249)"/>
<defs>
<linearGradient id="paint0_linear_1_249" x1="23.4752" y1="4.50684" x2="33.8365" y2="61.5097" gradientUnits="userSpaceOnUse">
<stop stop-color="#DD2A7B"/>
<stop offset="0.41261" stop-color="#9747FF"/>
<stop offset="1" stop-color="#334CCA"/>
</linearGradient>
</defs>
</svg>
