<svg width="140" height="54" viewBox="0 0 140 54" fill="none" xmlns="http://www.w3.org/2000/svg">
<rect opacity="0.35" x="81.5" y="23.5" width="24" height="12" rx="3.8" stroke="#010101"/>
<path opacity="0.4" d="M107 27.7811V31.8566C107.805 31.5114 108.328 30.7085 108.328 29.8189C108.328 28.9293 107.805 28.1263 107 27.7811Z" fill="#010101"/>
<rect x="83" y="25" width="21" height="9" rx="2.5" fill="#010101"/>
<path fill-rule="evenodd" clip-rule="evenodd" d="M65.2705 26.104C67.7576 26.1041 70.1496 27.0262 71.9521 28.6797C72.0879 28.8074 72.3048 28.8058 72.4385 28.6761L73.736 27.4126C73.8037 27.3469 73.8414 27.2578 73.8409 27.1651C73.8403 27.0724 73.8015 26.9838 73.733 26.9188C69.002 22.5441 61.5383 22.5441 56.8073 26.9188C56.7387 26.9837 56.6999 27.0724 56.6992 27.165C56.6986 27.2577 56.7363 27.3468 56.8039 27.4126L58.1018 28.6761C58.2354 28.8059 58.4525 28.8076 58.5881 28.6797C60.3909 27.0261 62.7832 26.104 65.2705 26.104ZM65.2672 30.3243C66.6245 30.3242 67.9334 30.836 68.9395 31.7601C69.0756 31.8913 69.2899 31.8884 69.4226 31.7537L70.7099 30.4344C70.7777 30.3652 70.8153 30.2713 70.8143 30.1738C70.8133 30.0762 70.7738 29.9831 70.7047 29.9153C67.6408 27.0245 62.8961 27.0245 59.8323 29.9153C59.7631 29.9831 59.7236 30.0762 59.7227 30.1738C59.7218 30.2714 59.7595 30.3653 59.8274 30.4344L61.1143 31.7537C61.247 31.8884 61.4614 31.8913 61.5974 31.7601C62.6029 30.8366 63.9107 30.3249 65.2672 30.3243ZM67.7916 33.1179C67.7935 33.2232 67.7565 33.3248 67.6892 33.3986L65.5125 35.8533C65.4487 35.9255 65.3617 35.9661 65.2709 35.9661C65.1802 35.9661 65.0932 35.9255 65.0294 35.8533L62.8523 33.3986C62.7851 33.3247 62.7481 33.2231 62.7501 33.1178C62.7521 33.0124 62.7929 32.9127 62.8629 32.842C64.253 31.5282 66.2889 31.5282 67.679 32.842C67.7489 32.9127 67.7897 33.0125 67.7916 33.1179Z" fill="#010101"/>
<path fill-rule="evenodd" clip-rule="evenodd" d="M49.2 24.6824C49.2 24.0493 48.7224 23.5361 48.1333 23.5361H47.0667C46.4776 23.5361 46 24.0493 46 24.6824V34.6163C46 35.2494 46.4776 35.7625 47.0667 35.7625H48.1333C48.7224 35.7625 49.2 35.2494 49.2 34.6163V24.6824ZM41.7659 25.9814H42.8326C43.4217 25.9814 43.8992 26.5069 43.8992 27.1552V34.5888C43.8992 35.237 43.4217 35.7625 42.8326 35.7625H41.7659C41.1768 35.7625 40.6992 35.237 40.6992 34.5888V27.1552C40.6992 26.5069 41.1768 25.9814 41.7659 25.9814ZM37.4341 28.6305H36.3674C35.7783 28.6305 35.3008 29.1627 35.3008 29.8191V34.5739C35.3008 35.2303 35.7783 35.7625 36.3674 35.7625H37.4341C38.0232 35.7625 38.5008 35.2303 38.5008 34.5739V29.8191C38.5008 29.1627 38.0232 28.6305 37.4341 28.6305ZM32.1333 31.0758H31.0667C30.4776 31.0758 30 31.6003 30 32.2475V34.5909C30 35.238 30.4776 35.7625 31.0667 35.7625H32.1333C32.7224 35.7625 33.2 35.238 33.2 34.5909V32.2475C33.2 31.6003 32.7224 31.0758 32.1333 31.0758Z" fill="#010101"/>
</svg>
