<svg width="20" height="18" viewBox="0 0 20 18" fill="none" xmlns="http://www.w3.org/2000/svg">
<path d="M3.06684 18V16.4118H16.9332V18H3.06684ZM3.03658 14.62L1.60316 6.32647C1.56807 6.33318 1.5286 6.33926 1.48474 6.34474C1.44088 6.35021 1.4014 6.35294 1.36632 6.35294C0.981754 6.35294 0.657895 6.21935 0.394737 5.95218C0.131579 5.68482 0 5.36029 0 4.97859C0 4.59106 0.131579 4.26168 0.394737 3.99044C0.657895 3.71938 0.982017 3.58385 1.36711 3.58385C1.75202 3.58385 2.07921 3.71938 2.34868 3.99044C2.61833 4.26168 2.75316 4.59106 2.75316 4.97859C2.75316 5.07706 2.745 5.16856 2.72868 5.25309C2.71254 5.33744 2.68693 5.41694 2.65184 5.49159L5.98184 6.9128L9.19026 2.50862C9.01763 2.38774 8.87833 2.22874 8.77237 2.03162C8.6664 1.8345 8.61342 1.62221 8.61342 1.39474C8.61342 1.00738 8.74816 0.678088 9.01763 0.406853C9.28711 0.135618 9.61439 0 9.99947 0C10.3844 0 10.7118 0.135441 10.9818 0.406323C11.2517 0.677029 11.3866 1.00588 11.3866 1.39288C11.3866 1.62494 11.3336 1.83873 11.2276 2.03426C11.1217 2.22962 10.9824 2.38774 10.8097 2.50862L14.0182 6.9128L17.3482 5.49159C17.3211 5.41941 17.2975 5.33991 17.2774 5.25309C17.257 5.16644 17.2468 5.07494 17.2468 4.97859C17.2468 4.59106 17.3784 4.26168 17.6416 3.99044C17.9047 3.71938 18.2289 3.58385 18.6139 3.58385C18.9989 3.58385 19.3261 3.71938 19.5958 3.99044C19.8653 4.26168 20 4.59106 20 4.97859C20 5.35924 19.865 5.6835 19.595 5.95138C19.325 6.21909 18.9971 6.35294 18.6113 6.35294C18.5804 6.35294 18.5457 6.34853 18.5071 6.33971C18.4687 6.33088 18.4308 6.32647 18.3934 6.32647L16.9634 14.62H3.03658ZM4.38053 13.0317H15.6195L16.6074 7.57244L13.4797 8.88194L10 4.07859L6.52026 8.88194L3.39263 7.57244L4.38053 13.0317Z" fill="url(#paint0_linear_1_301)"/>
<defs>
<linearGradient id="paint0_linear_1_301" x1="6.63482" y1="-0.767422" x2="9.96795" y2="19.6074" gradientUnits="userSpaceOnUse">
<stop stop-color="#DD2A7B"/>
<stop offset="0.41261" stop-color="#9747FF"/>
<stop offset="1" stop-color="#334CCA"/>
</linearGradient>
</defs>
</svg>
